<svg id="Layer_1" height="512" viewBox="0 0 512 512" width="512" xmlns="http://www.w3.org/2000/svg" data-name="Layer 1"><path d="m203.59 424.54c-.47-4.63-1.04-9.18-1.73-13.69-3.89-25.62-11.26-49.71-20.8-76.49-7.52-21.09-10.23-44.03-10.4-65.69a333.923 333.923 0 0 1 4.34-54.57q.585-3.72.79-7.42l.23.01a194.3 194.3 0 0 1 7.67-35.95q2.82 10.05 5.06 20.54c-4.5 19.25-11.8 59.06-7.44 100.31q.735 7.08 1.97 14.18v.01a175.32 175.32 0 0 0 7.42 28.58c13.57 38.08 22.75 70.74 23.77 110.08a316.352 316.352 0 0 1 -1.93 42.95 4.866 4.866 0 0 1 -1.57 3.06 4.785 4.785 0 0 1 -7.96-4.07 297.075 297.075 0 0 0 .58-61.84z" fill="#81c83d"/><path d="m128.54 365.1 11.82 13.57-27.57.48 25.52 14.24-11 6.96c-29.02 4.44-51.38-18.02-57.3-24.61a2.023 2.023 0 0 1 .46-3.08c26.49-16.24 57.06-7.84 58.05-7.57a.031.031 0 0 0 .02.01z" fill="#edb4bf"/><path d="m201.86 410.85c.69 4.51 1.26 9.06 1.73 13.69-12.74-19.58-31.46-27.34-38.92-30.35a8.889 8.889 0 0 0 -9.6 1.99c-14.19 14.13-30.62 5.98-30.62 5.98l2.86-1.81 11-6.96-25.52-14.24 27.57-.48-11.82-13.57a.031.031 0 0 1 -.02-.01l-2.75-3.16s20.2 2.13 30.49 17.43a8.886 8.886 0 0 0 6.33 3.84c6.41.75 28.31 11.13 39.27 27.65z" fill="#739937"/><path d="m141.86 247.62c-102.2 56.79-125.86-25.57-125.86-25.57 77.45-61.19 125.87 25.57 125.87 25.57z" fill="#4ca987"/><path d="m146.17 264.24c-14.99 115.94-95.77 86.23-95.77 86.23-3.25-98.63 95.77-86.24 95.77-86.24z" fill="#5fcda4"/><path d="m158.23 155.83a4.257 4.257 0 0 1 -1.76 1.88c-39.84 22.2-74.23 20.46-90.78-18.55-5.83-13.73-13.24-20.8-16.78-23.59a2.331 2.331 0 0 1 -.21-3.45c27.9-28.54 64.83-12.69 65.63-12.34h.01c11.14 14.68 26.03 25.12 37.34 31.62a68.229 68.229 0 0 1 6.97 21.99 4.262 4.262 0 0 1 -.42 2.44z" fill="#5fcda4"/><path d="m172.47 137.45a5.662 5.662 0 0 1 -6.29 1.25 144.648 144.648 0 0 1 -14.5-7.3c-11.31-6.5-26.2-16.94-37.34-31.62h-.01c-14.26-18.8-22.37-44.53-8.9-77.77a2.731 2.731 0 0 1 2.94-1.66c12.94 2 79.96 17.07 65.66 113.95a5.656 5.656 0 0 1 -1.56 3.15z" fill="#4ca987"/><path d="m213.52 172.14c10.94-12.37 57.32-58.34 101.06-5.74-8.82.96-44.84 39.47-72.24 18.78-13.32-10.06-24.01-13.39-28.82-13.04z" fill="#4ca987"/><path d="m194.07 144.92s-6.95-99.07 91.37-90.19c0 0 25.28 81.86-91.37 90.19z" fill="#5fcda4"/><path d="m266.14 259.32a50.947 50.947 0 0 1 -16.6 4.39h-.01l-12.02-4.05 21.39-19.89-26.89 6.08 8.01-15.5.01-.01c.68-.39 28.72-16.45 58.44-6.93a2.02 2.02 0 0 1 1.18 2.88c-3.31 6.19-14.47 24.43-33.51 33.03z" fill="#edb4bf"/><path d="m258.9 239.77-21.39 19.89 12.02 4.05h.01l3.51 1.18a28.021 28.021 0 0 1 -13.57 5.52 27.022 27.022 0 0 1 -17.59-4.06 8.976 8.976 0 0 0 -6.02-1.19 8.809 8.809 0 0 0 -3.78 1.55 80.226 80.226 0 0 0 -28.81 39.06q-1.23-7.095-1.97-14.18c6.71-18.64 24.14-33.81 30.19-36.06a8.833 8.833 0 0 0 5.23-5.23c6.26-17.03 24.88-23.95 25.46-24.16l-2.16 4.2-.01.01-8.01 15.5z" fill="#739937"/><path d="m221.89 266.35a27.022 27.022 0 0 0 17.59 4.06c-8.04 20.68-16.56 53.31-9.69 91.83-.17.15-.34.31-.51.46 0 0-44.3-50.26-13.41-97.54a8.976 8.976 0 0 1 6.02 1.19z" fill="#57bc93"/><path d="m266.14 259.32c11.27 21.67 14.96 57.03-36.35 102.92-6.87-38.52 1.65-71.15 9.69-91.83a28.021 28.021 0 0 0 13.57-5.52l-3.51-1.18a50.947 50.947 0 0 0 16.6-4.39z" fill="#5fcda4"/><path d="m274.32 422.81c99.48-61.36 126.83 19.18 126.83 19.18-74.57 64.66-126.87-19.16-126.87-19.16a.076.076 0 0 1 .04-.02z" fill="#5fcda4"/><path d="m270 406.18c-26.33-113.87 58.75-114.01 58.75-114.01 37.42 91.32-58.74 114.05-58.74 114.05s-.01-.03-.01-.04z" fill="#4ca987"/><path d="m482.88 405.98a13.691 13.691 0 0 1 -3.43-.58c-10.45-3.14-15.21 2.3-18.66-2.83s-8.42-15.94-4.76-17.96 14.61-.83 18.63-3.9c2.17-1.67 6.53-1.68 10.08-1.34a7.472 7.472 0 0 1 6.49 5.46c.89 3.22 2.27 7.32 4.07 9.55 2.89 3.59-3.61 11.98-12.42 11.6z" fill="#daaa79"/><path d="m468.02 328.23c5.6-2.16 13.68 10.94 6.53 21.32s-2.84 17.53-9.71 19.51-20.5 3.63-21.42-1.11 4.24-16.35 2.28-21.85c-1.07-2.98.46-7.78 2.09-11.55a8.621 8.621 0 0 1 8.3-5.22c3.85.17 8.84.09 11.93-1.1z" fill="#e1b7a3"/><path d="m434.36 403.94a13.911 13.911 0 0 1 -3.05 1.67c-10.15 4.02-10.5 11.25-16.39 9.36s-16.5-7.27-14.88-11.12 10.94-9.72 12.18-14.62c.67-2.66 4.08-5.37 7.07-7.3a7.471 7.471 0 0 1 8.49.25c2.68 1.97 6.31 4.32 9.11 4.95 4.5 1.02 4.6 11.63-2.53 16.81z" fill="#c79a83"/><path d="m425.54 335.24c.21 12.6 7.88 15.93 3.44 21.53s-14.58 14.86-18.08 11.54-6.06-15.77-10.85-19.1c-2.6-1.81-4.14-6.6-5.02-10.62a8.636 8.636 0 0 1 3.73-9.07c3.23-2.1 7.24-5.06 9.07-7.83 3.3-5.01 17.49.96 17.71 13.55z" fill="#c79a83"/><path d="m374.44 352.19c3.05-5.16 17.51.1 18.35 12.67s8.66 15.51 4.5 21.33-13.82 15.56-17.49 12.42-6.82-15.46-11.78-18.55c-2.68-1.68-4.46-6.39-5.53-10.36a8.641 8.641 0 0 1 3.27-9.24c3.12-2.25 6.99-5.41 8.68-8.27z" fill="#e1b7a3"/><path d="m42 222.05c14.852-11.734 28.632-18.013 41.213-20.521-18.679-3.844-41.321.064-67.213 20.521 0 0 15.452 53.736 75.268 44.45-38.468-6.906-49.268-44.45-49.268-44.45z" fill="#40876a"/><path d="m76.4 350.47c-2.154-65.368 40.523-81.965 69.614-85.729a3.646 3.646 0 0 0 -.014-.5v-.01s-98.935-12.39-95.685 86.24a72.442 72.442 0 0 0 34.922 2.229 56.4 56.4 0 0 1 -8.837-2.23z" fill="#4ca581"/><path d="m91.69 139.16c-5.83-13.73-13.24-20.8-16.78-23.59a2.331 2.331 0 0 1 -.21-3.45 54.848 54.848 0 0 1 28.063-15.72c-13.297-2.616-35.646-3.12-54.063 15.72a2.331 2.331 0 0 0 .21 3.45c3.54 2.79 10.95 9.86 16.78 23.59 11.865 27.967 32.9 36.774 58.538 31.341-13.761-3.568-25.003-13.58-32.538-31.341z" fill="#4ca581"/><path d="m140.34 100h-.01c-13.553-18-21.53-42.11-10.73-72.994a83.069 83.069 0 0 0 -21.228-6.6 2.791 2.791 0 0 0 -2.94 1.743c-13.472 33.238-5.362 58.851 8.898 77.851h.01c11.14 14 26.03 25.01 37.34 31.51a140.974 140.974 0 0 0 14.5 7.245 5.62 5.62 0 0 0 2.24.433 5.722 5.722 0 0 0 5.61-4.885c.234-1.584.443-3.035.634-4.576-10.848-6.562-24.147-16.727-34.324-29.727z" fill="#40876a"/><g fill="#284268"><path d="m364.006 400.6c-24.555-8.833-54.766-2.509-89.81 18.775q-4.278-2.19-8.564-4.689 3.086-2.849 5.951-5.768c6.474-1.7 44.624-12.91 61.256-45.258 10.5-20.427 10.061-44.862-1.315-72.625a3 3 0 0 0 -2.776-1.862c-1.28 0-31.576.337-51.114 24.956-16.228 20.448-19.889 51.114-10.907 91.152q-3.736 3.764-7.844 7.409a3 3 0 0 0 -.527.464q-2.436 2.136-5.007 4.221a172.684 172.684 0 0 1 -20.32-54.011c27.849-25.275 55.668-62.894 37.14-102.653a67.98 67.98 0 0 0 15.912-11.592 90.4 90.4 0 0 0 16.219-21.41 5.023 5.023 0 0 0 -2.911-7.158c-22.775-7.3-44.279-.365-54.574 4.11a2.952 2.952 0 0 0 -3.625-1.359c-.834.3-20.5 7.559-27.272 25.961a5.85 5.85 0 0 1 -3.461 3.457c-5.839 2.172-18.682 13-27.039 27.385-2.088-36.646 4.217-70.7 8.133-87.617 5.081-7.77 13.1-13.371 22.582-17.367 3.6-.042 13.159 2.448 26.405 12.45a32.279 32.279 0 0 0 19.956 6.738c16.37 0 32.724-11.1 43.8-18.618 4.234-2.874 9.034-6.132 10.613-6.3a3 3 0 0 0 1.983-4.9c-13.991-16.829-29.652-25.493-46.546-25.754-12.227-.2-24.865 4.018-37.54 12.5a115.72 115.72 0 0 0 -20.99 18.315q-13.6 5.737-21.545 14.751-1.584-6.781-3.43-13.39a178.571 178.571 0 0 1 9.283-23.143c40.692-3.212 68.78-15.723 83.483-37.215 17.859-26.1 9.088-55.467 8.706-56.7a3 3 0 0 0 -2.6-2.1c-29.812-2.7-53.22 4.074-69.587 20.116-26.413 25.887-25.377 66.7-25.078 72.6-2.557 5.215-4.95 10.736-7.128 16.566-2.474-7.934-5.188-15.639-8.068-23.078a8.709 8.709 0 0 0 1.152-3.21c6.194-41.954-1.709-73.966-23.491-95.147-17.369-16.89-38.59-21.269-44.681-22.209a5.69 5.69 0 0 0 -6.171 3.5c-10.674 26.347-9.113 51.439 4.354 73.452-13.255-3.255-39.423-5.845-60.457 15.681a5.32 5.32 0 0 0 .5 7.894c3.573 2.821 10.386 9.484 15.874 22.415 7.05 16.61 17.529 27.4 31.148 32.073a50.651 50.651 0 0 0 16.545 2.65c13.873 0 29.712-4.924 47.309-14.732.024-.013.044-.031.068-.044a68.39 68.39 0 0 1 14.039 53.343 343.888 343.888 0 0 0 -4.356 48.54q-3.2-2.66-6.419-5.1a3 3 0 0 0 -.383-.291 182.022 182.022 0 0 0 -16.761-11.253c-3.1-5.291-24.555-39.827-60.727-47.031-22.481-4.474-45.779 2.658-69.252 21.2a3 3 0 0 0 -1.023 3.182c.357 1.246 9.1 30.643 38.351 42.735a68.4 68.4 0 0 0 26.379 5.016 89.86 89.86 0 0 0 13.152-1.023 74.59 74.59 0 0 0 -19.551 12.743c-16.94 15.457-25.031 38.412-24.049 68.229a3 3 0 0 0 1.963 2.717 72.507 72.507 0 0 0 23.147 3.638 65.853 65.853 0 0 0 34.439-9.322c22.336-13.54 36.445-40.878 41.959-81.253q4.754-1.96 9.8-3.7 4.511 3.479 8.966 7.391c.275 21.613 3.091 44.35 10.561 65.324 8.306 23.318 14.711 44.061 18.76 64.9-11.995-12.023-28.195-19.367-34.061-20.05a5.847 5.847 0 0 1 -4.183-2.535c-10.952-16.267-31.781-18.644-32.662-18.737a2.926 2.926 0 0 0 -3.109 1.907c-10.8-1.8-33.449-3.4-54.076 9.25a5.022 5.022 0 0 0 -1.127 7.644c5.86 6.522 25.727 26.175 52.015 26.173.73 0 1.467-.02 2.208-.051a2.985 2.985 0 0 0 1.118.976c.184.091 18.537 8.929 34.069-6.542a5.884 5.884 0 0 1 6.356-1.326c6.823 2.754 24.774 10.013 37.153 28.639a293.625 293.625 0 0 1 -.672 60.446 7.792 7.792 0 1 0 15.5 1.652 324.46 324.46 0 0 0 2.029-41.378 181.7 181.7 0 0 0 43.378-27.468q5.616 3.36 11.218 6.19c3.387 5.179 26.289 38.217 62.558 43.674a67.362 67.362 0 0 0 10.031.753c19.446 0 39.04-8.457 58.384-25.227a3 3 0 0 0 .875-3.232c-.415-1.21-10.42-29.793-39.991-40.425zm-81.724-82.683c14.974-18.919 37.677-22.1 44.48-22.638 9.9 25.227 10.161 47.289.759 65.6-11.291 21.994-34.131 33.688-47.6 38.922 28.071-32.979 37.762-69.459 41.03-88.233a3 3 0 0 0 -5.911-1.029c-3.3 18.949-13.357 56.545-43.316 89.479-7.466-36.195-3.924-63.803 10.558-82.105zm21.073-156.608a265.765 265.765 0 0 0 -48.56-.953 164.914 164.914 0 0 0 -30.1 4.834c10.253-9.177 26.917-20.745 45.551-20.454 14 .216 27.211 7.091 39.3 20.448-2.218 1.219-4.969 3.064-8.627 5.547-15.253 10.353-38.3 26-56.769 12.056a81.813 81.813 0 0 0 -19.561-11.3c33.767-9.644 77.386-4.3 78.007-4.223a3 3 0 0 0 .761-5.951zm-83.035-85.161c12.871-12.615 30.68-18.976 53.064-18.976q4.7 0 9.676.375c1.526 6.7 5.3 29.622-8.456 49.679-13.206 19.249-38.521 30.753-75.28 34.242a176.949 176.949 0 0 1 33.894-44.516c23.015-21.91 44.81-31.024 45.028-31.113a3 3 0 0 0 -2.279-5.551c-.923.379-22.883 9.531-46.7 32.139a183.062 183.062 0 0 0 -31.981 40.373c1.067-14.606 5.564-39.53 23.034-56.652zm-166.492 183.945c-22.517-9.273-31.908-30.546-34.298-36.993 21.442-16.431 42.51-22.734 62.653-18.735 23.953 4.755 41.385 23.149 50.31 34.815a185.035 185.035 0 0 0 -57.785-17.7c-27.687-3.7-46.935-.115-47.741.039a3 3 0 1 0 1.13 5.893c.627-.12 52.974-9.589 107.531 20.169-32.695 17.191-60.197 21.408-81.8 12.512zm50.072 82.343c-20.985 12.759-43.9 7.71-50.558 5.816-.485-26.928 6.952-47.594 22.12-61.449 18.1-16.531 43.358-19.72 58.167-20.017a186.054 186.054 0 0 0 -53.476 41.114c-16.173 17.969-23.367 32.813-23.666 33.436a3 3 0 1 0 5.413 2.594c.255-.532 23.85-48.63 80.542-74.758-5.57 36.454-18.52 61.094-38.542 73.264zm41.858-81.27a118.779 118.779 0 0 0 -26.587.607 201.364 201.364 0 0 0 22.59-10.681q5.573 3.34 11.134 7.265-3.644 1.343-7.135 2.809zm122.719 39.982c-4.241 17.778-16.562 36.3-36.634 55.133-4.667-32.638 1.586-61.458 9.835-83.229a31.86 31.86 0 0 0 13.3-5.872 2.993 2.993 0 0 0 .916-1.392 54.126 54.126 0 0 0 8.807-2.6 56.658 56.658 0 0 1 3.778 37.96zm-43.217 51.127c-10.478-15.7-28.446-50.842-7.679-84.2a5.981 5.981 0 0 1 2.751.844 30.66 30.66 0 0 0 14.767 4.624c-7.649 21.108-13.28 48.202-9.837 78.732zm17-119.734c4.465-2.374 28.7-14.221 54.176-6.621-16.044 29.046-38.932 33.928-46.559 34.737l-6.636-2.23 17.7-16.458a3 3 0 0 0 -2.7-5.123l-20.609 4.659zm-29.719 25.8a11.841 11.841 0 0 0 7-7.009c3.224-8.762 10.146-14.689 15.675-18.231l-5.873 11.371a3 3 0 0 0 3.327 4.3l16.037-3.626-13.246 12.315a3 3 0 0 0 1.087 5.041l9.322 3.132c-5.028 2.144-13.191 3.729-22.437-1.854a11.876 11.876 0 0 0 -13.1.486 82.253 82.253 0 0 0 -25.642 30.36c-.108-.893-.223-1.787-.32-2.679 6.572-17.464 22.851-31.623 28.173-33.603zm-104.413-234.99c13.17 2.087 74.011 16.6 63.7 104.643-24.459-58.354-57.449-98.018-57.888-98.54a3 3 0 1 0 -4.591 3.862c.446.531 35.107 42.231 59.341 102.823a2.661 2.661 0 0 1 -1.332-.193c-14.9-6.387-87.724-41.811-59.23-112.595zm-42.388 96.441c.393.057 39.648 5.869 71.419 23.028a67.764 67.764 0 0 1 16.81 12.825c-22.732 12.452-42.752 16.3-57.945 11.088-11.939-4.1-21.215-13.766-27.571-28.742-5.726-13.489-12.935-20.883-17.083-24.3 24.629-24.6 56.037-13.466 61.1-11.436 1.461 1.894 3 3.766 4.654 5.606 10.283 11.472 22.516 19.984 32.283 25.672a68 68 0 0 1 5.193 14.357 73.711 73.711 0 0 0 -14.587-10.349c-32.736-17.679-71.771-23.451-73.413-23.687a3 3 0 1 0 -.856 5.938zm95.842 35.39a7.382 7.382 0 0 0 .047-2.169 68.751 68.751 0 0 0 -3.707-14.863c3.059 1.538 5.514 2.642 7.074 3.311a8.578 8.578 0 0 0 5.9.332c3.541 9.283 6.816 18.974 9.671 29q-2.145 6.879-3.852 14.282a74.512 74.512 0 0 0 -15.133-29.893zm-88.539 219.433c22.841-13.389 48.922-8.029 53.846-6.84l6.977 8.007-21.125.371a3 3 0 0 0 -1.409 5.62l21.107 11.78-6.167 3.9c-25.834 3.627-46.389-15.482-53.229-22.838zm92.747 16.8a11.873 11.873 0 0 0 -12.837 2.639c-7.655 7.625-15.963 8.02-21.354 7.133l8.311-5.258a3 3 0 0 0 -.142-5.155l-15.794-8.814 16.439-.289a3 3 0 0 0 2.209-4.971l-8.408-9.648c6.215 2.127 14.345 6.238 19.56 13.984a11.845 11.845 0 0 0 8.464 5.143c5.417.633 26.281 10.475 36.772 25.828.1.664.2 1.328.3 1.993-12.532-14.106-27.321-20.085-33.52-22.588zm43.765 95.648a1.8 1.8 0 0 1 -1.786 1.62 1.792 1.792 0 0 1 -1.779-1.982c6.3-59.038-2.907-99.439-22.1-153.342-7.386-20.737-10.073-43.336-10.234-64.783 0-.033 0-.064 0-.1a331.64 331.64 0 0 1 4.312-53.908c.348-2.186.587-4.37.738-6.549a2.981 2.981 0 0 0 .3-.981 193.857 193.857 0 0 1 4.586-24.853q1.1 4.5 2.085 9.072c-5.937 25.7-17.17 89.72 2.2 144.112 14.009 39.333 22.616 71.4 23.608 108.957a3 3 0 0 0 .011.367 314.9 314.9 0 0 1 -1.941 42.367zm7.792-47.235c-1.523-36.4-10.132-68.033-23.822-106.469a170.891 170.891 0 0 1 -7.131-27.338 76.886 76.886 0 0 1 21.226-31.857c-7.706 17.737-7.556 37.757.576 58.588a116.9 116.9 0 0 0 18.83 31.931l.1-.091a179.027 179.027 0 0 0 21.44 56.506 177.721 177.721 0 0 1 -31.219 18.727zm118.287 22.972c-24.25-3.634-42.528-21.257-51.868-32.358a196.045 196.045 0 0 0 65.066 14.908c3.883.211 7.559.3 11 .3 18.169 0 29.763-2.5 30.335-2.625a3 3 0 0 0 -1.289-5.859c-.576.125-52.6 11.025-108.23-14.664 31.944-18.682 59.263-24.167 81.256-16.291 22.71 8.135 32.988 28.613 35.67 34.886-20.743 17.459-41.574 24.757-61.94 21.703z"/><path d="m472.657 362.425a26.868 26.868 0 0 1 4.366-11.176 18.826 18.826 0 0 0 -.481-22.145c-2.711-3.439-6.321-4.85-9.459-3.722l-.069.023c-.022.008-.045.013-.067.022-2.064.795-5.874 1.114-10.727.9a11.66 11.66 0 0 0 -11.187 7.026c-2.6 6.039-3.308 10.537-2.162 13.747.8 2.253-.3 7.111-1.184 11.014-.936 4.129-1.745 7.695-1.216 10.4a5.712 5.712 0 0 0 2.784 3.834c2 1.225 4.982 1.659 8.157 1.659a58.459 58.459 0 0 0 14.264-2.07c5.392-1.547 6.2-5.596 6.981-9.512zm-8.646 3.758c-7.25 2.092-16.081 2.341-17.677 1.035-.207-1.545.541-4.847 1.2-7.772 1.166-5.143 2.373-10.462.983-14.357-.214-.6-.7-3.04 2.021-9.358a5.7 5.7 0 0 1 5.416-3.4c2.092.091 4 .089 5.72 0-1.965 3.3-3.9 7.284-3.963 10.276a3 3 0 0 0 2.934 3.065h.067a3 3 0 0 0 3-2.935c.053-2.431 3.3-7.932 5.952-11.667a5 5 0 0 1 2.163 1.749 12.967 12.967 0 0 1 .253 15.027 32.843 32.843 0 0 0 -5.31 13.407c-.782 3.933-1.07 4.44-2.759 4.93z"/><path d="m494.127 384.042a10.53 10.53 0 0 0 -9.1-7.653c-5.771-.553-9.76.079-12.191 1.938-1.551 1.188-5.783 1.56-9.184 1.859-3.7.326-6.892.607-9.061 1.8a5.345 5.345 0 0 0 -2.621 3.569c-1.355 5.592 4.112 15.386 6.333 18.688 2.847 4.235 6.688 3.8 10.078 3.408a22.963 22.963 0 0 1 10.21.625 17.007 17.007 0 0 0 4.915.737 16.776 16.776 0 0 0 13.668-7.161c2.248-3.34 2.428-6.925.469-9.355-1.172-1.449-2.419-4.452-3.516-8.455zm-1.935 14.458a10.916 10.916 0 0 1 -6.211 4.186 11 11 0 0 0 -2.981-6.243 3 3 0 0 0 -4.329 4.157 4.941 4.941 0 0 1 1.1 1.779 26.753 26.753 0 0 0 -7.307-1.025 40.314 40.314 0 0 0 -4.77.337c-3.4.39-3.7.277-4.418-.795-3.441-5.116-5.915-11.851-5.523-13.78a31.047 31.047 0 0 1 6.42-.953c4.606-.405 9.369-.824 12.305-3.071.84-.644 3.376-1.171 7.969-.731a4.5 4.5 0 0 1 3.892 3.267c1.348 4.919 2.905 8.5 4.627 10.635.083.1.094.951-.774 2.237z"/><path d="m381.657 347.6c-4.166-.99-7.794.084-9.6 2.786a2.734 2.734 0 0 0 -.18.247c-.009.013-.02.024-.029.038-1.125 1.9-3.912 4.52-7.849 7.367a11.692 11.692 0 0 0 -4.409 12.451c1.71 6.349 3.948 10.314 6.84 12.12 2.028 1.268 4.18 5.76 5.909 9.37 1.829 3.819 3.409 7.117 5.506 8.914a5.582 5.582 0 0 0 3.707 1.33 7.158 7.158 0 0 0 .856-.053c6.4-.779 14.863-10.79 17.324-14.235 3.262-4.568 1.381-8.245-.438-11.8a26.9 26.9 0 0 1 -3.515-11.472 18.829 18.829 0 0 0 -14.122-17.063zm13.2 36.848c-4.372 6.122-11.112 11.782-13.2 11.782h-.02c-1.122-1.083-2.585-4.137-3.881-6.843-2.278-4.756-4.634-9.675-8.141-11.866-.539-.336-2.437-1.951-4.225-8.592a5.66 5.66 0 0 1 2.131-6.029q2.546-1.842 4.487-3.549c.51 3.809 1.467 8.131 3.273 10.518a3 3 0 0 0 4.785-3.621c-1.468-1.939-2.341-8.262-2.577-12.841a5.016 5.016 0 0 1 2.781.031 12.966 12.966 0 0 1 9.529 11.625 32.834 32.834 0 0 0 4.16 13.805c1.825 3.568 1.918 4.142.894 5.575z"/><path d="m437.556 384.208c-1.814-.411-4.656-1.991-8-4.449a10.531 10.531 0 0 0 -11.89-.352c-4.871 3.15-7.6 6.121-8.354 9.085-.479 1.894-3.566 4.812-6.047 7.156-2.7 2.55-5.027 4.753-5.986 7.035a5.34 5.34 0 0 0 .159 4.424c2.41 5.227 12.777 9.514 16.568 10.724a8.928 8.928 0 0 0 2.722.455c3.242 0 5.371-2.12 7.295-4.037a22.949 22.949 0 0 1 8.394-5.846 16.706 16.706 0 0 0 10.583-16.564c-.313-4.017-2.4-6.939-5.444-7.631zm-2.813 15.225a11.016 11.016 0 0 0 -6.216-3.045 3 3 0 0 0 -.816 5.945 4.885 4.885 0 0 1 1.968.722 29.1 29.1 0 0 0 -9.893 6.945c-2.426 2.417-2.726 2.508-3.957 2.118-5.874-1.876-12-5.621-12.886-7.377a30.891 30.891 0 0 1 4.441-4.73c3.36-3.177 6.835-6.461 7.742-10.045.259-1.024 1.917-3.011 5.794-5.518a4.5 4.5 0 0 1 5.081.148c4.112 3.021 7.554 4.86 10.229 5.466.127.028.665.689.785 2.241a10.91 10.91 0 0 1 -2.272 7.13z"/><path d="m398.336 351.671c1.964 1.365 3.891 5.958 5.441 9.648 1.639 3.9 3.055 7.277 5.06 9.173a5.626 5.626 0 0 0 3.973 1.521c.169 0 .342-.006.522-.019 6.43-.463 15.377-10.045 18-13.365 3.483-4.4 1.786-8.165.144-11.805a26.881 26.881 0 0 1 -2.945-11.632c0-.074-.012-.145-.014-.219 0-.022 0-.045 0-.067a18.824 18.824 0 0 0 -13.25-17.452c-4.267-1.241-8.076-.25-9.945 2.584-1.216 1.845-4.129 4.32-8.2 6.971a11.691 11.691 0 0 0 -5.017 12.22c1.395 6.424 3.432 10.494 6.231 12.442zm2.056-19.633c4.887-3.18 8.231-6.106 9.939-8.7.248-.374 1.422-.66 3.261-.126a12.98 12.98 0 0 1 8.906 11.5 8.113 8.113 0 0 1 -4.937 3.677 3 3 0 1 0 1.816 5.718 16.309 16.309 0 0 0 4.048-1.9 39.6 39.6 0 0 0 2.586 7.089c1.649 3.657 1.713 4.235.62 5.616-4.684 5.918-11.751 11.291-13.782 11.115-1.067-1.134-2.378-4.257-3.54-7.024-2.041-4.862-4.152-9.891-7.546-12.252-.522-.362-2.338-2.069-3.8-8.79a5.661 5.661 0 0 1 2.429-5.923z"/></g></svg>